<svg width="55" height="55" viewBox="0 0 55 55" fill="none" xmlns="http://www.w3.org/2000/svg">
<rect x="2.63477" y="6.74805" width="45" height="45" rx="22.5" fill="white" fill-opacity="0.05" stroke="url(#paint0_linear_1_703)"/>
<g filter="url(#filter0_f_1_703)">
<rect x="4.63477" y="4.74805" width="45" height="45" rx="22.5" stroke="url(#paint1_linear_1_703)"/>
</g>
<g clip-path="url(#clip0_1_703)">
<path d="M35.4522 19.741C33.9222 19.051 32.2822 18.541 30.5672 18.251C30.552 18.2481 30.5362 18.25 30.522 18.2564C30.5079 18.2629 30.4961 18.2735 30.4882 18.287C30.2782 18.656 30.0442 19.137 29.8802 19.517C28.0613 19.2452 26.2122 19.2452 24.3932 19.517C24.2106 19.0959 24.0046 18.6852 23.7762 18.287C23.7685 18.2734 23.7568 18.2624 23.7427 18.2557C23.7286 18.2489 23.7127 18.2465 23.6972 18.249C21.9832 18.539 20.3432 19.049 18.8122 19.74C18.7991 19.7455 18.7879 19.7549 18.7802 19.767C15.6682 24.342 14.8152 28.804 15.2342 33.21C15.2354 33.2208 15.2388 33.2312 15.2441 33.2407C15.2494 33.2501 15.2566 33.2584 15.2652 33.265C17.0816 34.5874 19.1076 35.5948 21.2582 36.245C21.2732 36.2496 21.2893 36.2496 21.3043 36.245C21.3192 36.2403 21.3325 36.2313 21.3422 36.219C21.8042 35.599 22.2162 34.944 22.5682 34.256C22.5892 34.216 22.5692 34.168 22.5272 34.152C21.8813 33.9087 21.2553 33.6152 20.6552 33.274C20.6445 33.2678 20.6354 33.2591 20.6288 33.2486C20.6222 33.238 20.6184 33.226 20.6176 33.2137C20.6168 33.2013 20.6191 33.1889 20.6243 33.1776C20.6294 33.1663 20.6373 33.1565 20.6472 33.149C20.7732 33.056 20.8992 32.959 21.0192 32.862C21.03 32.8533 21.0431 32.8477 21.0568 32.846C21.0706 32.8442 21.0846 32.8463 21.0972 32.852C25.0242 34.616 29.2772 34.616 33.1582 32.852C33.1709 32.8459 33.1851 32.8436 33.199 32.8452C33.213 32.8468 33.2262 32.8522 33.2372 32.861C33.3572 32.959 33.4822 33.056 33.6092 33.149C33.6193 33.1563 33.6273 33.166 33.6326 33.1772C33.638 33.1884 33.6405 33.2007 33.6399 33.2131C33.6393 33.2255 33.6356 33.2375 33.6292 33.2482C33.6228 33.2588 33.6139 33.2677 33.6032 33.274C33.0052 33.618 32.3832 33.909 31.7302 34.151C31.7202 34.1546 31.7111 34.1604 31.7034 34.1678C31.6958 34.1753 31.6899 34.1843 31.686 34.1942C31.6821 34.2042 31.6804 34.2148 31.6809 34.2255C31.6815 34.2361 31.6843 34.2465 31.6892 34.256C32.0492 34.943 32.4612 35.597 32.9142 36.218C32.9237 36.2307 32.9368 36.2403 32.9518 36.2453C32.9669 36.2503 32.9831 36.2505 32.9982 36.246C35.1526 35.5976 37.1819 34.5898 39.0002 33.265C39.0091 33.2588 39.0166 33.2508 39.0221 33.2415C39.0276 33.2321 39.0311 33.2218 39.0322 33.211C39.5322 28.117 38.1942 23.691 35.4832 19.769C35.4766 19.7563 35.4656 19.7463 35.4522 19.741ZM23.1552 30.527C21.9732 30.527 20.9982 29.458 20.9982 28.147C20.9982 26.835 21.9542 25.767 23.1552 25.767C24.3652 25.767 25.3312 26.844 25.3122 28.147C25.3122 29.459 24.3562 30.527 23.1552 30.527ZM31.1302 30.527C29.9472 30.527 28.9732 29.458 28.9732 28.147C28.9732 26.835 29.9282 25.767 31.1302 25.767C32.3402 25.767 33.3062 26.844 33.2872 28.147C33.2872 29.459 32.3412 30.527 31.1302 30.527Z" fill="white"/>
<path d="M35.4522 19.741C33.9222 19.051 32.2822 18.541 30.5672 18.251C30.552 18.2481 30.5362 18.25 30.522 18.2564C30.5079 18.2629 30.4961 18.2735 30.4882 18.287C30.2782 18.656 30.0442 19.137 29.8802 19.517C28.0613 19.2452 26.2122 19.2452 24.3932 19.517C24.2106 19.0959 24.0046 18.6852 23.7762 18.287C23.7685 18.2734 23.7568 18.2624 23.7427 18.2557C23.7286 18.2489 23.7127 18.2465 23.6972 18.249C21.9832 18.539 20.3432 19.049 18.8122 19.74C18.7991 19.7455 18.7879 19.7549 18.7802 19.767C15.6682 24.342 14.8152 28.804 15.2342 33.21C15.2354 33.2208 15.2388 33.2312 15.2441 33.2407C15.2494 33.2501 15.2566 33.2584 15.2652 33.265C17.0816 34.5874 19.1076 35.5948 21.2582 36.245C21.2732 36.2496 21.2893 36.2496 21.3043 36.245C21.3192 36.2403 21.3325 36.2313 21.3422 36.219C21.8042 35.599 22.2162 34.944 22.5682 34.256C22.5892 34.216 22.5692 34.168 22.5272 34.152C21.8813 33.9087 21.2553 33.6152 20.6552 33.274C20.6445 33.2678 20.6354 33.2591 20.6288 33.2486C20.6222 33.238 20.6184 33.226 20.6176 33.2137C20.6168 33.2013 20.6191 33.1889 20.6243 33.1776C20.6294 33.1663 20.6373 33.1565 20.6472 33.149C20.7732 33.056 20.8992 32.959 21.0192 32.862C21.03 32.8533 21.0431 32.8477 21.0568 32.846C21.0706 32.8442 21.0846 32.8463 21.0972 32.852C25.0242 34.616 29.2772 34.616 33.1582 32.852C33.1709 32.8459 33.1851 32.8436 33.199 32.8452C33.213 32.8468 33.2262 32.8522 33.2372 32.861C33.3572 32.959 33.4822 33.056 33.6092 33.149C33.6193 33.1563 33.6273 33.166 33.6326 33.1772C33.638 33.1884 33.6405 33.2007 33.6399 33.2131C33.6393 33.2255 33.6356 33.2375 33.6292 33.2482C33.6228 33.2588 33.6139 33.2677 33.6032 33.274C33.0052 33.618 32.3832 33.909 31.7302 34.151C31.7202 34.1546 31.7111 34.1604 31.7034 34.1678C31.6958 34.1753 31.6899 34.1843 31.686 34.1942C31.6821 34.2042 31.6804 34.2148 31.6809 34.2255C31.6815 34.2361 31.6843 34.2465 31.6892 34.256C32.0492 34.943 32.4612 35.597 32.9142 36.218C32.9237 36.2307 32.9368 36.2403 32.9518 36.2453C32.9669 36.2503 32.9831 36.2505 32.9982 36.246C35.1526 35.5976 37.1819 34.5898 39.0002 33.265C39.0091 33.2588 39.0166 33.2508 39.0221 33.2415C39.0276 33.2321 39.0311 33.2218 39.0322 33.211C39.5322 28.117 38.1942 23.691 35.4832 19.769C35.4766 19.7563 35.4656 19.7463 35.4522 19.741ZM23.1552 30.527C21.9732 30.527 20.9982 29.458 20.9982 28.147C20.9982 26.835 21.9542 25.767 23.1552 25.767C24.3652 25.767 25.3312 26.844 25.3122 28.147C25.3122 29.459 24.3562 30.527 23.1552 30.527ZM31.1302 30.527C29.9472 30.527 28.9732 29.458 28.9732 28.147C28.9732 26.835 29.9282 25.767 31.1302 25.767C32.3402 25.767 33.3062 26.844 33.2872 28.147C33.2872 29.459 32.3412 30.527 31.1302 30.527Z" fill="url(#paint2_linear_1_703)"/>
</g>
<defs>
<filter id="filter0_f_1_703" x="0.134766" y="0.248047" width="54" height="54" filterUnits="userSpaceOnUse" color-interpolation-filters="sRGB">
<feFlood flood-opacity="0" result="BackgroundImageFix"/>
<feBlend mode="normal" in="SourceGraphic" in2="BackgroundImageFix" result="shape"/>
<feGaussianBlur stdDeviation="2" result="effect1_foregroundBlur_1_703"/>
</filter>
<linearGradient id="paint0_linear_1_703" x1="-3.98541" y1="-8.4464" x2="49.653" y2="-5.22917" gradientUnits="userSpaceOnUse">
<stop offset="0.0364395" stop-color="#FBF4B7"/>
<stop offset="0.322909" stop-color="#31CDE2"/>
<stop offset="0.635422" stop-color="#5276FF"/>
<stop offset="1" stop-color="#D874FF"/>
</linearGradient>
<linearGradient id="paint1_linear_1_703" x1="-1.98541" y1="-10.4464" x2="51.653" y2="-7.22917" gradientUnits="userSpaceOnUse">
<stop offset="0.0364395" stop-color="#FBF4B7"/>
<stop offset="0.322909" stop-color="#31CDE2"/>
<stop offset="0.635422" stop-color="#5276FF"/>
<stop offset="1" stop-color="#D874FF"/>
</linearGradient>
<linearGradient id="paint2_linear_1_703" x1="11.9415" y1="12.4977" x2="39.8498" y2="14.7295" gradientUnits="userSpaceOnUse">
<stop offset="0.0364395" stop-color="#FBF4B7"/>
<stop offset="0.322909" stop-color="#31CDE2"/>
<stop offset="0.635422" stop-color="#5276FF"/>
<stop offset="1" stop-color="#D874FF"/>
</linearGradient>
<clipPath id="clip0_1_703">
<rect width="24" height="24" fill="white" transform="translate(15.1348 15.248)"/>
</clipPath>
</defs>
</svg>
