<svg width="25" height="60" viewBox="0 0 25 60" fill="none" xmlns="http://www.w3.org/2000/svg">
<path fill-rule="evenodd" clip-rule="evenodd" d="M11.3523 0.0310272C5.58673 0.454591 0.822433 6.12708 0.20561 13.3026C0.109721 14.4176 0.111813 29.094 0.207991 30.1227C0.641621 34.7617 2.73033 38.8072 5.94093 41.2262C7.41657 42.3379 9.38709 43.1423 11.0599 43.3156L11.6048 43.372V50.4774C11.6048 54.3854 11.5847 57.5828 11.5601 57.5828C11.5355 57.5828 10.9638 57.0356 10.2898 56.3669C6.60926 52.7154 6.70862 52.8077 6.45861 52.8077C6.01892 52.8077 5.70557 53.4079 5.91178 53.8553C6.04122 54.1362 11.8812 59.9485 12.0738 59.9882C12.1532 60.0045 12.283 60.0038 12.3624 59.9867C12.5573 59.9444 18.3964 54.1354 18.5244 53.8563C18.7303 53.4074 18.4176 52.8077 17.9776 52.8077C17.7276 52.8077 17.8269 52.7154 14.1464 56.3669C13.4724 57.0356 12.9007 57.5828 12.8761 57.5828C12.8515 57.5828 12.8314 54.3854 12.8314 50.4774V43.372L13.3763 43.3156C14.6258 43.1861 16.1403 42.6768 17.3408 41.9821C21.1675 39.7681 23.7408 35.337 24.2282 30.1227C24.3244 29.094 24.3265 14.4176 24.2306 13.3026C23.8198 8.52344 21.6027 4.34157 18.1992 1.92637C16.1677 0.484657 13.8628 -0.153343 11.3523 0.0310272ZM14.563 1.81424C16.6131 2.41086 18.212 3.46641 19.6733 5.18781C21.6181 7.47877 22.7351 10.2795 23.0019 13.5335C23.1021 14.7568 23.1023 28.603 23.0021 29.8295C22.8024 32.2732 22.0622 34.615 20.8784 36.5479C20.2801 37.5251 19.07 38.9456 18.309 39.5644C16.803 40.789 15.0239 41.5867 13.3184 41.802L12.8314 41.8634V35.1287V28.3939L12.6543 28.1769C12.4133 27.8816 12.0229 27.8816 11.7819 28.1769L11.6048 28.3939V35.1184V41.8428L11.4425 41.8423C11.0762 41.8411 9.86741 41.5717 9.25989 41.3559C4.95909 39.8279 1.88075 35.2939 1.43413 29.8295C1.38918 29.2791 1.35931 26.0287 1.35931 21.6815C1.35931 17.3344 1.38918 14.084 1.43413 13.5335C1.69922 10.2903 2.82283 7.4732 4.76291 5.18781C6.45349 3.19626 8.46687 2.01462 10.9194 1.57443C11.0384 1.55312 11.7365 1.5487 12.4706 1.5647C13.5868 1.58902 13.9295 1.62987 14.563 1.81424ZM11.7284 8.98203C11.2815 9.13368 10.8977 9.51639 10.6466 10.0607C10.4686 10.4468 10.4484 10.5707 10.4663 11.1656C10.4834 11.7323 10.5202 11.9027 10.7048 12.2687C10.8402 12.537 11.0575 12.8033 11.2764 12.9692C11.5939 13.2098 11.6889 13.2368 12.2181 13.2368C12.7473 13.2368 12.8423 13.2098 13.1598 12.9692C13.9039 12.4054 14.1961 11.2159 13.8398 10.2008C13.4906 9.20592 12.594 8.68836 11.7284 8.98203ZM11.8157 17.6071C11.5466 17.9369 11.5337 18.3306 11.7819 18.6348C12.1563 19.0935 12.8314 18.7763 12.8314 18.1417C12.8314 17.7896 12.4904 17.3486 12.2181 17.3486C12.1027 17.3486 11.9428 17.4513 11.8157 17.6071ZM11.8242 20.957C11.411 21.4633 11.6296 22.2121 12.1905 22.2121C12.9737 22.2121 13.0478 20.9243 12.2751 20.7426C12.0814 20.6971 12.0076 20.7322 11.8242 20.957ZM11.7544 24.3905C11.557 24.6979 11.5651 25.0637 11.7758 25.364C12.2858 26.0905 13.166 25.1448 12.6818 24.3905C12.5612 24.2025 12.4716 24.1575 12.2181 24.1575C11.9646 24.1575 11.875 24.2025 11.7544 24.3905Z" fill="white"/>
</svg>
