<svg width="55" height="55" viewBox="0 0 55 55" fill="none" xmlns="http://www.w3.org/2000/svg">
<rect x="2.63477" y="6.74805" width="45" height="45" rx="22.5" fill="white" fill-opacity="0.05" stroke="url(#paint0_linear_1_696)"/>
<g filter="url(#filter0_f_1_696)">
<rect x="4.63477" y="4.74805" width="45" height="45" rx="22.5" stroke="url(#paint1_linear_1_696)"/>
</g>
<path d="M25.1349 26.1234C23.4146 26.1234 22.0107 27.5273 22.0107 29.2476C22.0107 30.9679 23.4146 32.3718 25.1349 32.3718C26.8552 32.3718 28.2591 30.9679 28.2591 29.2476C28.2591 27.5273 26.8552 26.1234 25.1349 26.1234ZM34.5052 29.2476C34.5052 27.9538 34.5169 26.6718 34.4443 25.3804C34.3716 23.8804 34.0294 22.5491 32.9325 21.4523C31.8333 20.353 30.5044 20.0132 29.0044 19.9405C27.7107 19.8679 26.4286 19.8796 25.1372 19.8796C23.8435 19.8796 22.5614 19.8679 21.27 19.9405C19.77 20.0132 18.4388 20.3554 17.3419 21.4523C16.2427 22.5515 15.9028 23.8804 15.8302 25.3804C15.7575 26.6741 15.7693 27.9562 15.7693 29.2476C15.7693 30.539 15.7575 31.8234 15.8302 33.1148C15.9028 34.6148 16.245 35.946 17.3419 37.0429C18.4411 38.1421 19.77 38.4819 21.27 38.5546C22.5638 38.6273 23.8458 38.6155 25.1372 38.6155C26.431 38.6155 27.713 38.6273 29.0044 38.5546C30.5044 38.4819 31.8357 38.1398 32.9325 37.0429C34.0318 35.9437 34.3716 34.6148 34.4443 33.1148C34.5193 31.8234 34.5052 30.5413 34.5052 29.2476ZM25.1349 34.0546C22.4747 34.0546 20.3278 31.9077 20.3278 29.2476C20.3278 26.5874 22.4747 24.4405 25.1349 24.4405C27.795 24.4405 29.9419 26.5874 29.9419 29.2476C29.9419 31.9077 27.795 34.0546 25.1349 34.0546ZM30.1388 25.3663C29.5177 25.3663 29.0161 24.8648 29.0161 24.2437C29.0161 23.6226 29.5177 23.121 30.1388 23.121C30.7599 23.121 31.2614 23.6226 31.2614 24.2437C31.2616 24.3911 31.2327 24.5372 31.1764 24.6735C31.12 24.8098 31.0373 24.9336 30.933 25.0379C30.8287 25.1422 30.7049 25.2249 30.5686 25.2812C30.4323 25.3376 30.2863 25.3665 30.1388 25.3663Z" fill="white"/>
<path d="M25.1349 26.1234C23.4146 26.1234 22.0107 27.5273 22.0107 29.2476C22.0107 30.9679 23.4146 32.3718 25.1349 32.3718C26.8552 32.3718 28.2591 30.9679 28.2591 29.2476C28.2591 27.5273 26.8552 26.1234 25.1349 26.1234ZM34.5052 29.2476C34.5052 27.9538 34.5169 26.6718 34.4443 25.3804C34.3716 23.8804 34.0294 22.5491 32.9325 21.4523C31.8333 20.353 30.5044 20.0132 29.0044 19.9405C27.7107 19.8679 26.4286 19.8796 25.1372 19.8796C23.8435 19.8796 22.5614 19.8679 21.27 19.9405C19.77 20.0132 18.4388 20.3554 17.3419 21.4523C16.2427 22.5515 15.9028 23.8804 15.8302 25.3804C15.7575 26.6741 15.7693 27.9562 15.7693 29.2476C15.7693 30.539 15.7575 31.8234 15.8302 33.1148C15.9028 34.6148 16.245 35.946 17.3419 37.0429C18.4411 38.1421 19.77 38.4819 21.27 38.5546C22.5638 38.6273 23.8458 38.6155 25.1372 38.6155C26.431 38.6155 27.713 38.6273 29.0044 38.5546C30.5044 38.4819 31.8357 38.1398 32.9325 37.0429C34.0318 35.9437 34.3716 34.6148 34.4443 33.1148C34.5193 31.8234 34.5052 30.5413 34.5052 29.2476ZM25.1349 34.0546C22.4747 34.0546 20.3278 31.9077 20.3278 29.2476C20.3278 26.5874 22.4747 24.4405 25.1349 24.4405C27.795 24.4405 29.9419 26.5874 29.9419 29.2476C29.9419 31.9077 27.795 34.0546 25.1349 34.0546ZM30.1388 25.3663C29.5177 25.3663 29.0161 24.8648 29.0161 24.2437C29.0161 23.6226 29.5177 23.121 30.1388 23.121C30.7599 23.121 31.2614 23.6226 31.2614 24.2437C31.2616 24.3911 31.2327 24.5372 31.1764 24.6735C31.12 24.8098 31.0373 24.9336 30.933 25.0379C30.8287 25.1422 30.7049 25.2249 30.5686 25.2812C30.4323 25.3376 30.2863 25.3665 30.1388 25.3663Z" fill="url(#paint2_linear_1_696)"/>
<defs>
<filter id="filter0_f_1_696" x="0.134766" y="0.248047" width="54" height="54" filterUnits="userSpaceOnUse" color-interpolation-filters="sRGB">
<feFlood flood-opacity="0" result="BackgroundImageFix"/>
<feBlend mode="normal" in="SourceGraphic" in2="BackgroundImageFix" result="shape"/>
<feGaussianBlur stdDeviation="2" result="effect1_foregroundBlur_1_696"/>
</filter>
<linearGradient id="paint0_linear_1_696" x1="-3.98541" y1="-8.4464" x2="49.653" y2="-5.22917" gradientUnits="userSpaceOnUse">
<stop offset="0.0364395" stop-color="#FBF4B7"/>
<stop offset="0.322909" stop-color="#31CDE2"/>
<stop offset="0.635422" stop-color="#5276FF"/>
<stop offset="1" stop-color="#D874FF"/>
</linearGradient>
<linearGradient id="paint1_linear_1_696" x1="-1.98541" y1="-10.4464" x2="51.653" y2="-7.22917" gradientUnits="userSpaceOnUse">
<stop offset="0.0364395" stop-color="#FBF4B7"/>
<stop offset="0.322909" stop-color="#31CDE2"/>
<stop offset="0.635422" stop-color="#5276FF"/>
<stop offset="1" stop-color="#D874FF"/>
</linearGradient>
<linearGradient id="paint2_linear_1_696" x1="13.2756" y1="13.8934" x2="35.1247" y2="15.2039" gradientUnits="userSpaceOnUse">
<stop offset="0.0364395" stop-color="#FBF4B7"/>
<stop offset="0.322909" stop-color="#31CDE2"/>
<stop offset="0.635422" stop-color="#5276FF"/>
<stop offset="1" stop-color="#D874FF"/>
</linearGradient>
</defs>
</svg>
