<svg width="1215" height="4" viewBox="0 0 1215 4" fill="none" xmlns="http://www.w3.org/2000/svg">
<line x1="0.594727" y1="2.47363" x2="12.6078" y2="2.47363" stroke="white" stroke-width="3"/>
<line x1="18.8985" y1="2.47363" x2="22.8775" y2="2.47363" stroke="white" stroke-width="3"/>
<line x1="0.594727" y1="2.47363" x2="12.6078" y2="2.47363" stroke="white" stroke-width="3"/>
<line x1="18.8985" y1="2.47363" x2="22.8775" y2="2.47363" stroke="white" stroke-width="3"/>
<line x1="30.3838" y1="2.47363" x2="42.3969" y2="2.47363" stroke="white" stroke-width="3"/>
<line x1="48.6875" y1="2.47363" x2="52.6666" y2="2.47363" stroke="white" stroke-width="3"/>
<line x1="60.1719" y1="2.47363" x2="72.185" y2="2.47363" stroke="white" stroke-width="3"/>
<line x1="78.4756" y1="2.47363" x2="82.4547" y2="2.47363" stroke="white" stroke-width="3"/>
<line x1="89.9609" y1="2.47363" x2="101.974" y2="2.47363" stroke="white" stroke-width="3"/>
<line x1="108.265" y1="2.47363" x2="112.244" y2="2.47363" stroke="white" stroke-width="3"/>
<line x1="119.75" y1="2.47363" x2="131.763" y2="2.47363" stroke="white" stroke-width="3"/>
<line x1="138.053" y1="2.47363" x2="142.032" y2="2.47363" stroke="white" stroke-width="3"/>
<line x1="149.539" y1="2.47363" x2="161.552" y2="2.47363" stroke="white" stroke-width="3"/>
<line x1="167.842" y1="2.47363" x2="171.821" y2="2.47363" stroke="white" stroke-width="3"/>
<line x1="179.327" y1="2.47363" x2="191.34" y2="2.47363" stroke="white" stroke-width="3"/>
<line x1="197.631" y1="2.47363" x2="201.61" y2="2.47363" stroke="white" stroke-width="3"/>
<line x1="209.116" y1="2.47363" x2="221.129" y2="2.47363" stroke="white" stroke-width="3"/>
<line x1="227.42" y1="2.47363" x2="231.399" y2="2.47363" stroke="white" stroke-width="3"/>
<line x1="238.904" y1="2.47363" x2="250.917" y2="2.47363" stroke="white" stroke-width="3"/>
<line x1="257.208" y1="2.47363" x2="261.187" y2="2.47363" stroke="white" stroke-width="3"/>
<line x1="268.693" y1="2.47363" x2="280.706" y2="2.47363" stroke="white" stroke-width="3"/>
<line x1="286.997" y1="2.47363" x2="290.976" y2="2.47363" stroke="white" stroke-width="3"/>
<line x1="298.482" y1="2.47363" x2="310.495" y2="2.47363" stroke="white" stroke-width="3"/>
<line x1="316.786" y1="2.47363" x2="320.765" y2="2.47363" stroke="white" stroke-width="3"/>
<line x1="328.271" y1="2.47363" x2="340.284" y2="2.47363" stroke="white" stroke-width="3"/>
<line x1="346.574" y1="2.47363" x2="350.553" y2="2.47363" stroke="white" stroke-width="3"/>
<line x1="358.059" y1="2.47363" x2="370.072" y2="2.47363" stroke="white" stroke-width="3"/>
<line x1="376.363" y1="2.47363" x2="380.342" y2="2.47363" stroke="white" stroke-width="3"/>
<line x1="387.848" y1="2.47363" x2="399.861" y2="2.47363" stroke="white" stroke-width="3"/>
<line x1="406.152" y1="2.47363" x2="410.131" y2="2.47363" stroke="white" stroke-width="3"/>
<line x1="417.637" y1="2.47363" x2="429.65" y2="2.47363" stroke="white" stroke-width="3"/>
<line x1="435.94" y1="2.47363" x2="439.919" y2="2.47363" stroke="white" stroke-width="3"/>
<line x1="447.426" y1="2.47363" x2="459.439" y2="2.47363" stroke="white" stroke-width="3"/>
<line x1="465.73" y1="2.47363" x2="469.709" y2="2.47363" stroke="white" stroke-width="3"/>
<line x1="477.214" y1="2.47363" x2="489.227" y2="2.47363" stroke="white" stroke-width="3"/>
<line x1="495.518" y1="2.47363" x2="499.497" y2="2.47363" stroke="white" stroke-width="3"/>
<line x1="507.003" y1="2.47363" x2="519.016" y2="2.47363" stroke="white" stroke-width="3"/>
<line x1="525.307" y1="2.47363" x2="529.286" y2="2.47363" stroke="white" stroke-width="3"/>
<line x1="536.792" y1="2.47363" x2="548.805" y2="2.47363" stroke="white" stroke-width="3"/>
<line x1="555.095" y1="2.47363" x2="559.074" y2="2.47363" stroke="white" stroke-width="3"/>
<line x1="566.58" y1="2.47363" x2="578.593" y2="2.47363" stroke="white" stroke-width="3"/>
<line x1="584.884" y1="2.47363" x2="588.863" y2="2.47363" stroke="white" stroke-width="3"/>
<line x1="596.369" y1="2.47363" x2="608.382" y2="2.47363" stroke="white" stroke-width="3"/>
<line x1="614.673" y1="2.47363" x2="618.652" y2="2.47363" stroke="white" stroke-width="3"/>
<line x1="626.158" y1="2.47363" x2="638.171" y2="2.47363" stroke="white" stroke-width="3"/>
<line x1="644.462" y1="2.47363" x2="648.441" y2="2.47363" stroke="white" stroke-width="3"/>
<line x1="655.946" y1="2.47363" x2="667.96" y2="2.47363" stroke="white" stroke-width="3"/>
<line x1="674.25" y1="2.47363" x2="678.229" y2="2.47363" stroke="white" stroke-width="3"/>
<line x1="685.735" y1="2.47363" x2="697.748" y2="2.47363" stroke="white" stroke-width="3"/>
<line x1="704.039" y1="2.47363" x2="708.018" y2="2.47363" stroke="white" stroke-width="3"/>
<line x1="715.524" y1="2.47363" x2="727.537" y2="2.47363" stroke="white" stroke-width="3"/>
<line x1="733.828" y1="2.47363" x2="737.807" y2="2.47363" stroke="white" stroke-width="3"/>
<line x1="745.313" y1="2.47363" x2="757.326" y2="2.47363" stroke="white" stroke-width="3"/>
<line x1="763.616" y1="2.47363" x2="767.595" y2="2.47363" stroke="white" stroke-width="3"/>
<line x1="775.101" y1="2.47363" x2="787.114" y2="2.47363" stroke="white" stroke-width="3"/>
<line x1="793.405" y1="2.47363" x2="797.384" y2="2.47363" stroke="white" stroke-width="3"/>
<line x1="804.89" y1="2.47363" x2="816.903" y2="2.47363" stroke="white" stroke-width="3"/>
<line x1="823.194" y1="2.47363" x2="827.173" y2="2.47363" stroke="white" stroke-width="3"/>
<line x1="834.679" y1="2.47363" x2="846.692" y2="2.47363" stroke="white" stroke-width="3"/>
<line x1="852.982" y1="2.47363" x2="856.961" y2="2.47363" stroke="white" stroke-width="3"/>
<line x1="864.467" y1="2.47363" x2="876.48" y2="2.47363" stroke="white" stroke-width="3"/>
<line x1="882.771" y1="2.47363" x2="886.75" y2="2.47363" stroke="white" stroke-width="3"/>
<line x1="894.256" y1="2.47363" x2="906.269" y2="2.47363" stroke="white" stroke-width="3"/>
<line x1="912.56" y1="2.47363" x2="916.539" y2="2.47363" stroke="white" stroke-width="3"/>
<line x1="924.045" y1="2.47363" x2="936.058" y2="2.47363" stroke="white" stroke-width="3"/>
<line x1="942.349" y1="2.47363" x2="946.328" y2="2.47363" stroke="white" stroke-width="3"/>
<line x1="953.833" y1="2.47363" x2="965.846" y2="2.47363" stroke="white" stroke-width="3"/>
<line x1="972.137" y1="2.47363" x2="976.116" y2="2.47363" stroke="white" stroke-width="3"/>
<line x1="983.622" y1="2.47363" x2="995.635" y2="2.47363" stroke="white" stroke-width="3"/>
<line x1="1001.93" y1="2.47363" x2="1005.9" y2="2.47363" stroke="white" stroke-width="3"/>
<line x1="1013.41" y1="2.47363" x2="1025.42" y2="2.47363" stroke="white" stroke-width="3"/>
<line x1="1031.71" y1="2.47363" x2="1035.69" y2="2.47363" stroke="white" stroke-width="3"/>
<line x1="1043.2" y1="2.47363" x2="1055.21" y2="2.47363" stroke="white" stroke-width="3"/>
<line x1="1061.5" y1="2.47363" x2="1065.48" y2="2.47363" stroke="white" stroke-width="3"/>
<line x1="1072.99" y1="2.47363" x2="1085" y2="2.47363" stroke="white" stroke-width="3"/>
<line x1="1091.29" y1="2.47363" x2="1095.27" y2="2.47363" stroke="white" stroke-width="3"/>
<line x1="1102.78" y1="2.47363" x2="1114.79" y2="2.47363" stroke="white" stroke-width="3"/>
<line x1="1121.08" y1="2.47363" x2="1125.06" y2="2.47363" stroke="white" stroke-width="3"/>
<line x1="1132.57" y1="2.47363" x2="1144.58" y2="2.47363" stroke="white" stroke-width="3"/>
<line x1="1150.87" y1="2.47363" x2="1154.85" y2="2.47363" stroke="white" stroke-width="3"/>
<line x1="1162.35" y1="2.47363" x2="1174.37" y2="2.47363" stroke="white" stroke-width="3"/>
<line x1="1180.66" y1="2.47363" x2="1184.64" y2="2.47363" stroke="white" stroke-width="3"/>
<line x1="1192.14" y1="2.47363" x2="1204.16" y2="2.47363" stroke="white" stroke-width="3"/>
<line x1="1210.45" y1="2.47363" x2="1214.43" y2="2.47363" stroke="white" stroke-width="3"/>
</svg>
