<svg width="100" height="122" viewBox="0 0 100 122" fill="none" xmlns="http://www.w3.org/2000/svg">
<g filter="url(#filter0_bi_1_571)">
<path d="M50.0284 121.826L32.301 91.1214L67.7558 91.1214L50.0284 121.826Z" fill="white" fill-opacity="0.1"/>
</g>
<g filter="url(#filter1_bi_1_571)">
<circle cx="50.0285" cy="49.9736" r="49.5434" fill="white" fill-opacity="0.1"/>
</g>
<path d="M34.748 57.5032C36.7525 57.4972 38.6811 56.7363 40.1495 55.3719L54.4953 63.5692C54.0147 65.4475 54.2266 67.436 55.0922 69.1708C55.9579 70.9056 57.4194 72.2706 59.2092 73.0159C60.999 73.7612 62.9974 73.837 64.8385 73.2293C66.6796 72.6216 68.2402 71.3712 69.2347 69.7069C70.2292 68.0426 70.5911 66.0758 70.254 64.1666C69.9169 62.2573 68.9034 60.5333 67.3991 59.3102C65.8948 58.0871 64.0003 57.4467 62.0624 57.5063C60.1246 57.5658 58.273 58.3213 56.8466 59.6344L42.5008 51.4371C42.652 50.8642 42.7345 50.2707 42.7483 49.6771L56.842 41.6219C58.1991 42.8566 59.9395 43.587 61.7713 43.6907C63.603 43.7943 65.4147 43.2648 66.9024 42.191C68.39 41.1172 69.4631 39.5645 69.9417 37.7933C70.4202 36.0221 70.2751 34.1402 69.5306 32.4634C68.7861 30.7865 67.4876 29.4167 65.8529 28.5837C64.2182 27.7507 62.3467 27.5053 60.5525 27.8886C58.7583 28.2718 57.1505 29.2605 55.9988 30.6887C54.8471 32.1169 54.2216 33.8977 54.2272 35.7324C54.2364 36.3924 54.3258 37.0501 54.4953 37.6871L41.4695 45.1282C40.7141 43.9596 39.6677 43.0076 38.4331 42.3658C37.1985 41.7239 35.8181 41.4143 34.4276 41.4674C33.0371 41.5204 31.6844 41.9343 30.5022 42.6683C29.3201 43.4024 28.3493 44.4313 27.6851 45.6541C27.021 46.8769 26.6864 48.2514 26.7142 49.6426C26.742 51.0338 27.1312 52.3939 27.8437 53.5891C28.5562 54.7844 29.5673 55.7737 30.7778 56.46C31.9883 57.1462 33.3566 57.5057 34.748 57.5032Z" fill="url(#paint0_linear_1_571)"/>
<defs>
<filter id="filter0_bi_1_571" x="12.3542" y="71.1747" width="75.3485" height="71.6515" filterUnits="userSpaceOnUse" color-interpolation-filters="sRGB">
<feFlood flood-opacity="0" result="BackgroundImageFix"/>
<feGaussianBlur in="BackgroundImageFix" stdDeviation="9.9734"/>
<feComposite in2="SourceAlpha" operator="in" result="effect1_backgroundBlur_1_571"/>
<feBlend mode="normal" in="SourceGraphic" in2="effect1_backgroundBlur_1_571" result="shape"/>
<feColorMatrix in="SourceAlpha" type="matrix" values="0 0 0 0 0 0 0 0 0 0 0 0 0 0 0 0 0 0 127 0" result="hardAlpha"/>
<feOffset dy="21"/>
<feGaussianBlur stdDeviation="41.5"/>
<feComposite in2="hardAlpha" operator="arithmetic" k2="-1" k3="1"/>
<feColorMatrix type="matrix" values="0 0 0 0 0.526736 0 0 0 0 0.154167 0 0 0 0 1 0 0 0 0.5 0"/>
<feBlend mode="normal" in2="shape" result="effect2_innerShadow_1_571"/>
</filter>
<filter id="filter1_bi_1_571" x="-19.4618" y="-19.5166" width="138.98" height="140.034" filterUnits="userSpaceOnUse" color-interpolation-filters="sRGB">
<feFlood flood-opacity="0" result="BackgroundImageFix"/>
<feGaussianBlur in="BackgroundImageFix" stdDeviation="9.9734"/>
<feComposite in2="SourceAlpha" operator="in" result="effect1_backgroundBlur_1_571"/>
<feBlend mode="normal" in="SourceGraphic" in2="effect1_backgroundBlur_1_571" result="shape"/>
<feColorMatrix in="SourceAlpha" type="matrix" values="0 0 0 0 0 0 0 0 0 0 0 0 0 0 0 0 0 0 127 0" result="hardAlpha"/>
<feOffset dy="21"/>
<feGaussianBlur stdDeviation="41.5"/>
<feComposite in2="hardAlpha" operator="arithmetic" k2="-1" k3="1"/>
<feColorMatrix type="matrix" values="0 0 0 0 0.526736 0 0 0 0 0.154167 0 0 0 0 1 0 0 0 0.5 0"/>
<feBlend mode="normal" in2="shape" result="effect2_innerShadow_1_571"/>
</filter>
<linearGradient id="paint0_linear_1_571" x1="22.1956" y1="19.6359" x2="69.2941" y2="19.9771" gradientUnits="userSpaceOnUse">
<stop offset="0.0364395" stop-color="#FBF4B7"/>
<stop offset="0.322909" stop-color="#31CDE2"/>
<stop offset="0.635422" stop-color="#5276FF"/>
<stop offset="1" stop-color="#D874FF"/>
</linearGradient>
</defs>
</svg>
