<svg width="100" height="122" viewBox="0 0 100 122" fill="none" xmlns="http://www.w3.org/2000/svg">
    <g filter="url(#filter0_bi_1_582)">
        <path d="M49.5585 121.603L31.8311 90.8978L67.2859 90.8978L49.5585 121.603Z" fill="white" fill-opacity="0.1" />
    </g>
    <g filter="url(#filter1_bi_1_582)">
        <circle cx="49.5586" cy="49.75" r="49.5434" fill="white" fill-opacity="0.1" />
    </g>
    <path
        d="M74.173 24.3464H71.7555V25.1164C68.3902 25.8692 67.9064 28.9931 67.7165 30.1867C67.6262 30.7514 67.4432 31.8557 67.2163 33.2083H25.1241C23.4587 33.2083 23.2722 34.7646 23.4896 35.6257L28.4276 57.4255C28.6441 58.2866 29.5559 58.9896 30.4497 58.9896H67.3547C68.2433 58.9896 68.9677 59.7123 68.9677 60.6009C68.9677 61.4895 68.2433 62.2122 67.3547 62.2122H27.0723C26.645 62.2122 26.2351 62.382 25.933 62.6842C25.6308 62.9863 25.461 63.3962 25.461 63.8235C25.461 64.2509 25.6308 64.6607 25.933 64.9629C26.2351 65.2651 26.645 65.4349 27.0723 65.4349H29.1606C28.1523 65.9915 27.3117 66.8084 26.7265 67.8004C26.1413 68.7924 25.8327 69.9232 25.8331 71.075H27.4444C27.4444 73.7433 29.6101 75.9089 32.2784 75.9089C34.9468 75.9089 37.1124 73.7433 37.1124 71.075H38.7237C38.7239 69.9231 38.4153 68.7923 37.8299 67.8003C37.2445 66.8084 36.4038 65.9915 35.3954 65.4349H58.1637C57.1553 65.9915 56.3146 66.8084 55.7292 67.8003C55.1438 68.7923 54.8351 69.9231 54.8353 71.075H56.4466C56.4705 72.3414 56.9904 73.548 57.8945 74.4352C58.7986 75.3225 60.0148 75.8195 61.2815 75.8195C62.5482 75.8195 63.7643 75.3225 64.6684 74.4352C65.5726 73.548 66.0924 72.3414 66.1163 71.075H67.7276C67.7277 69.9232 67.4191 68.7926 66.8339 67.8006C66.2487 66.8087 65.4083 65.9918 64.4001 65.4349H67.3564C68.6382 65.4342 69.8674 64.9247 70.7738 64.0183C71.6802 63.1119 72.1897 61.8827 72.1904 60.6009C72.1903 59.966 72.0651 59.3373 71.822 58.7507C71.5789 58.1642 71.2227 57.6313 70.7737 57.1824C70.3246 56.7335 69.7916 56.3775 69.205 56.1346C68.6183 55.8917 67.9896 55.7668 67.3547 55.7669H66.7557L68.8165 42.9536C69.3905 39.5694 70.628 32.2587 70.9185 30.4403C71.0646 29.5216 71.2064 28.8762 71.7555 28.5144V29.1796H74.173C74.3862 29.1789 74.5905 29.0939 74.7413 28.9433C74.8921 28.7926 74.9773 28.5884 74.9782 28.3752V25.1525C74.9777 24.939 74.8928 24.7344 74.7419 24.5833C74.591 24.4323 74.3865 24.3471 74.173 24.3464ZM32.2784 73.4924C31.6375 73.4917 31.023 73.2368 30.5698 72.7836C30.1166 72.3304 29.8617 71.7159 29.861 71.075H34.695C34.6943 71.7157 34.4395 72.3301 33.9865 72.7833C33.5335 73.2365 32.9192 73.4915 32.2784 73.4924ZM61.2823 73.4924C60.6413 73.4919 60.0265 73.2371 59.5732 72.7839C59.1198 72.3306 58.8647 71.716 58.8641 71.075H63.6998C63.6986 71.7157 63.4436 72.33 62.9905 72.7831C62.5373 73.2362 61.9231 73.4912 61.2823 73.4924ZM59.2998 37.2319C59.3281 37.0135 59.4339 36.8125 59.5979 36.6655C59.762 36.5185 59.9733 36.4353 60.1935 36.431H65.2956C65.7391 36.431 66.0476 36.7885 65.978 37.2276L65.4726 40.4683C65.4056 40.9066 64.9854 41.265 64.5411 41.265H59.6744C59.572 41.2677 59.4701 41.2481 59.3759 41.2077C59.2817 41.1673 59.1973 41.107 59.1286 41.0309C59.06 40.9548 59.0086 40.8647 58.978 40.7669C58.9475 40.669 58.9385 40.5657 58.9517 40.464L59.2998 37.2319ZM58.4326 45.2885C58.4615 45.0703 58.5675 44.8697 58.7314 44.7228C58.8953 44.5759 59.1063 44.4925 59.3264 44.4876H64.0383C64.4826 44.4876 64.7903 44.8451 64.7233 45.2842L64.3426 47.7197C64.2747 48.158 63.8553 48.5164 63.411 48.5164H58.8933C58.7909 48.5188 58.6892 48.4991 58.5951 48.4586C58.501 48.4181 58.4168 48.3577 58.3482 48.2817C58.2795 48.2057 58.2281 48.1157 58.1975 48.018C58.1668 47.9202 58.1576 47.817 58.1705 47.7154L58.4326 45.2885ZM27.5974 40.4829L26.781 37.213C26.6744 36.7816 26.9512 36.431 27.3955 36.431H33.4618C33.9069 36.431 34.3083 36.791 34.3555 37.2319L34.7027 40.4649C34.7156 40.5664 34.7064 40.6695 34.6758 40.7672C34.6452 40.8649 34.5939 40.9548 34.5254 41.0308C34.4569 41.1068 34.3727 41.1672 34.2788 41.2077C34.1848 41.2483 34.0832 41.2681 33.9808 41.2658H28.6003C28.1569 41.2658 27.7048 40.9126 27.5974 40.4829ZM30.4084 48.5164C29.965 48.5164 29.513 48.164 29.4064 47.7343L28.7911 45.2705C28.6837 44.8391 28.9587 44.4885 29.403 44.4885H34.3263C34.7706 44.4885 35.1728 44.8485 35.2201 45.2894L35.4813 47.7163C35.4943 47.8178 35.4853 47.921 35.4547 48.0188C35.4242 48.1165 35.3729 48.2065 35.3043 48.2825C35.2358 48.3586 35.1516 48.4189 35.0575 48.4594C34.9635 48.5 34.8618 48.5197 34.7594 48.5172H30.4084V48.5164ZM35.538 55.7678H32.2166C31.7705 55.7678 31.3211 55.4154 31.2137 54.9857L30.5983 52.5219C30.4918 52.0905 30.7668 51.7399 31.2119 51.7399H35.1049C35.5492 51.7399 35.9514 52.1 36.0004 52.5408L36.2599 54.9677C36.273 55.0692 36.2639 55.1724 36.2333 55.27C36.2028 55.3677 36.1515 55.4577 36.0829 55.5337C36.0143 55.6097 35.9301 55.6699 35.8361 55.7103C35.742 55.7507 35.6404 55.7703 35.538 55.7678ZM45.414 54.9617C45.4131 55.1755 45.3276 55.3802 45.1763 55.5313C45.0249 55.6823 44.82 55.7673 44.6062 55.7678H40.403C40.1829 55.7632 39.9718 55.6799 39.8079 55.5329C39.6441 55.386 39.5384 55.1851 39.5101 54.9668L39.2488 52.54C39.2355 52.4384 39.2443 52.3352 39.2747 52.2374C39.3051 52.1396 39.3563 52.0495 39.4249 51.9734C39.4934 51.8973 39.5776 51.8369 39.6716 51.7965C39.7657 51.756 39.8675 51.7364 39.9698 51.739H44.6062C44.8201 51.739 45.0253 51.8239 45.1768 51.975C45.3282 52.1261 45.4135 52.3312 45.414 52.5451V54.9617ZM45.414 47.7111C45.4131 47.9249 45.3276 48.1297 45.1763 48.2807C45.0249 48.4317 44.82 48.5168 44.6062 48.5172H39.6235C39.1801 48.5172 38.7796 48.1571 38.7298 47.7163L38.4702 45.2894C38.4571 45.1879 38.466 45.0847 38.4964 44.987C38.5269 44.8893 38.5781 44.7993 38.6466 44.7232C38.7151 44.6471 38.7992 44.5867 38.8932 44.5462C38.9872 44.5057 39.0889 44.486 39.1912 44.4885H44.6062C44.8201 44.4885 45.0253 44.5733 45.1768 44.7245C45.3282 44.8756 45.4135 45.0806 45.414 45.2946V47.7111ZM45.414 40.4597C45.4131 40.6735 45.3276 40.8783 45.1763 41.0293C45.0249 41.1803 44.82 41.2654 44.6062 41.2658H38.8466C38.6264 41.2615 38.4151 41.1782 38.2511 41.0312C38.0871 40.8843 37.9812 40.6833 37.9529 40.4649L37.6057 37.2319C37.5927 37.1303 37.6017 37.0272 37.6323 36.9294C37.6628 36.8317 37.7141 36.7417 37.7827 36.6657C37.8512 36.5896 37.9354 36.5292 38.0295 36.4887C38.1235 36.4482 38.2252 36.4285 38.3276 36.431H44.607C44.821 36.431 45.0262 36.5158 45.1776 36.667C45.3291 36.8181 45.4144 37.0231 45.4148 37.2371V40.4597H45.414ZM54.1444 54.9668C54.1158 55.1852 54.01 55.386 53.846 55.533C53.682 55.68 53.4708 55.7632 53.2506 55.7678H49.4522C49.2384 55.7673 49.0336 55.6823 48.8824 55.5312C48.7312 55.3802 48.6459 55.1754 48.6452 54.9617V52.5442C48.6457 52.3305 48.7309 52.1255 48.8821 51.9745C49.0334 51.8234 49.2384 51.7384 49.4522 51.7382H53.6837C54.1272 51.7382 54.4537 52.0982 54.4056 52.5391L54.1444 54.9668ZM54.923 47.7154C54.8944 47.9338 54.7886 48.1346 54.6246 48.2816C54.4606 48.4285 54.2494 48.5118 54.0292 48.5164H49.4522C49.2384 48.5159 49.0336 48.4309 48.8824 48.2798C48.7312 48.1288 48.6459 47.924 48.6452 47.7103V45.2928C48.6457 45.079 48.7309 44.8741 48.8821 44.723C49.0334 44.5719 49.2384 44.487 49.4522 44.4867H54.4623C54.9066 44.4867 55.2323 44.8468 55.1833 45.2877L54.923 47.7154ZM55.7015 40.4649C55.673 40.6832 55.5672 40.8841 55.4032 41.031C55.2392 41.178 55.028 41.2613 54.8078 41.2658H49.4522C49.2384 41.2654 49.0336 41.1803 48.8824 41.0293C48.7312 40.8782 48.6459 40.6734 48.6452 40.4597V37.2371C48.6457 37.0233 48.7309 36.8184 48.8821 36.6673C49.0334 36.5162 49.2384 36.4312 49.4522 36.431H55.3277C55.772 36.431 56.0977 36.791 56.0505 37.2319L55.7015 40.4649ZM61.9165 55.7678V55.7617L61.9097 55.7678H58.1147C58.0898 55.7678 58.0683 55.7557 58.0433 55.7523C58.0391 55.7231 58.0391 55.6939 58.0339 55.6629L57.9961 55.742C58.0066 55.7448 58.0172 55.7471 58.0279 55.7489C57.6317 55.7033 57.3481 55.3759 57.3937 54.9668L57.6532 52.54C57.6821 52.3218 57.788 52.1211 57.9519 51.9742C58.1158 51.8273 58.3269 51.7439 58.5469 51.739H62.9091C63.3534 51.739 63.6594 52.0965 63.5923 52.5357L63.2116 54.9711C63.1455 55.4094 62.7261 55.7678 62.2818 55.7678H61.9165Z"
        fill="url(#paint0_linear_1_582)" />
    <defs>
        <filter id="filter0_bi_1_582" x="11.8842" y="70.951" width="75.3485" height="71.6516"
            filterUnits="userSpaceOnUse" color-interpolation-filters="sRGB">
            <feFlood flood-opacity="0" result="BackgroundImageFix" />
            <feGaussianBlur in="BackgroundImageFix" stdDeviation="9.9734" />
            <feComposite in2="SourceAlpha" operator="in" result="effect1_backgroundBlur_1_582" />
            <feBlend mode="normal" in="SourceGraphic" in2="effect1_backgroundBlur_1_582" result="shape" />
            <feColorMatrix in="SourceAlpha" type="matrix" values="0 0 0 0 0 0 0 0 0 0 0 0 0 0 0 0 0 0 127 0"
                result="hardAlpha" />
            <feOffset dy="21" />
            <feGaussianBlur stdDeviation="41.5" />
            <feComposite in2="hardAlpha" operator="arithmetic" k2="-1" k3="1" />
            <feColorMatrix type="matrix" values="0 0 0 0 0.526736 0 0 0 0 0.154167 0 0 0 0 1 0 0 0 0.5 0" />
            <feBlend mode="normal" in2="shape" result="effect2_innerShadow_1_582" />
        </filter>
        <filter id="filter1_bi_1_582" x="-19.9317" y="-19.7403" width="138.98" height="140.034"
            filterUnits="userSpaceOnUse" color-interpolation-filters="sRGB">
            <feFlood flood-opacity="0" result="BackgroundImageFix" />
            <feGaussianBlur in="BackgroundImageFix" stdDeviation="9.9734" />
            <feComposite in2="SourceAlpha" operator="in" result="effect1_backgroundBlur_1_582" />
            <feBlend mode="normal" in="SourceGraphic" in2="effect1_backgroundBlur_1_582" result="shape" />
            <feColorMatrix in="SourceAlpha" type="matrix" values="0 0 0 0 0 0 0 0 0 0 0 0 0 0 0 0 0 0 127 0"
                result="hardAlpha" />
            <feOffset dy="21" />
            <feGaussianBlur stdDeviation="41.5" />
            <feComposite in2="hardAlpha" operator="arithmetic" k2="-1" k3="1" />
            <feColorMatrix type="matrix" values="0 0 0 0 0.526736 0 0 0 0 0.154167 0 0 0 0 1 0 0 0 0.5 0" />
            <feBlend mode="normal" in2="shape" result="effect2_innerShadow_1_582" />
        </filter>
        <linearGradient id="paint0_linear_1_582" x1="18.082" y1="15.2785" x2="73.6993" y2="15.7023"
            gradientUnits="userSpaceOnUse">
            <stop offset="0.0364395" stop-color="#FBF4B7" />
            <stop offset="0.322909" stop-color="#31CDE2" />
            <stop offset="0.635422" stop-color="#5276FF" />
            <stop offset="1" stop-color="#D874FF" />
        </linearGradient>
    </defs>
</svg>