<svg width="101" height="122" viewBox="0 0 101 122" fill="none" xmlns="http://www.w3.org/2000/svg">
<g filter="url(#filter0_bi_1_524)">
<path d="M50.5385 121.826L32.811 91.1214L68.2659 91.1214L50.5385 121.826Z" fill="white" fill-opacity="0.1"/>
</g>
<g filter="url(#filter1_bi_1_524)">
<circle cx="50.5386" cy="49.9736" r="49.5434" fill="white" fill-opacity="0.1"/>
</g>
<g clip-path="url(#clip0_1_524)">
<path d="M57.1311 43.7937C63.5493 50.2185 63.4612 60.5191 57.1698 66.8453C57.158 66.8582 57.144 66.8722 57.1311 66.8851L49.9124 74.1038C43.5455 80.4707 33.187 80.4698 26.8211 74.1038C20.4542 67.738 20.4542 57.3783 26.8211 51.0125L30.807 47.0265C31.8641 45.9694 33.6844 46.672 33.739 48.1658C33.8086 50.0695 34.15 51.9822 34.7799 53.8292C34.9933 54.4546 34.8408 55.1464 34.3735 55.6136L32.9677 57.0195C29.9571 60.0301 29.8627 64.9322 32.8436 67.9722C35.854 71.0422 40.8021 71.0604 43.8356 68.027L51.0543 60.8093C54.0826 57.781 54.0699 52.8862 51.0543 49.8706C50.6567 49.4737 50.2563 49.1654 49.9434 48.9501C49.7221 48.7981 49.5394 48.5965 49.4099 48.3614C49.2803 48.1263 49.2075 47.8642 49.1972 47.5959C49.1546 46.4608 49.5568 45.2911 50.4538 44.3941L52.7155 42.1323C53.3085 41.5393 54.2389 41.4664 54.9266 41.9464C55.7142 42.4963 56.4519 43.1145 57.1311 43.7937ZM72.2706 28.6535C65.9047 22.2875 55.5461 22.2866 49.1792 28.6535L41.9605 35.8722C41.9476 35.8851 41.9337 35.8991 41.9218 35.912C35.6306 42.2383 35.5424 52.5388 41.9605 58.9636C42.6397 59.6428 43.3774 60.2609 44.1649 60.8108C44.8526 61.2908 45.7831 61.2178 46.3761 60.6249L48.6377 58.3631C49.5347 57.4661 49.9369 56.2964 49.8944 55.1613C49.8841 54.893 49.8112 54.6309 49.6817 54.3958C49.5521 54.1607 49.3694 53.9591 49.1481 53.8071C48.8353 53.5918 48.4348 53.2835 48.0372 52.8866C45.0216 49.871 45.0089 44.9762 48.0372 41.9479L55.256 34.7302C58.2895 31.6968 63.2374 31.715 66.2479 34.785C69.2288 37.8251 69.1345 42.7271 66.1238 45.7377L64.718 47.1436C64.2507 47.6108 64.0983 48.3026 64.3116 48.928C64.9415 50.7751 65.2829 52.6877 65.3525 54.5914C65.4072 56.0852 67.2275 56.7878 68.2845 55.7307L72.2705 51.7447C78.6375 45.379 78.6375 35.0193 72.2706 28.6535Z" fill="black"/>
<path d="M57.1311 43.7937C63.5493 50.2185 63.4612 60.5191 57.1698 66.8453C57.158 66.8582 57.144 66.8722 57.1311 66.8851L49.9124 74.1038C43.5455 80.4707 33.187 80.4698 26.8211 74.1038C20.4542 67.738 20.4542 57.3783 26.8211 51.0125L30.807 47.0265C31.8641 45.9694 33.6844 46.672 33.739 48.1658C33.8086 50.0695 34.15 51.9822 34.7799 53.8292C34.9933 54.4546 34.8408 55.1464 34.3735 55.6136L32.9677 57.0195C29.9571 60.0301 29.8627 64.9322 32.8436 67.9722C35.854 71.0422 40.8021 71.0604 43.8356 68.027L51.0543 60.8093C54.0826 57.781 54.0699 52.8862 51.0543 49.8706C50.6567 49.4737 50.2563 49.1654 49.9434 48.9501C49.7221 48.7981 49.5394 48.5965 49.4099 48.3614C49.2803 48.1263 49.2075 47.8642 49.1972 47.5959C49.1546 46.4608 49.5568 45.2911 50.4538 44.3941L52.7155 42.1323C53.3085 41.5393 54.2389 41.4664 54.9266 41.9464C55.7142 42.4963 56.4519 43.1145 57.1311 43.7937ZM72.2706 28.6535C65.9047 22.2875 55.5461 22.2866 49.1792 28.6535L41.9605 35.8722C41.9476 35.8851 41.9337 35.8991 41.9218 35.912C35.6306 42.2383 35.5424 52.5388 41.9605 58.9636C42.6397 59.6428 43.3774 60.2609 44.1649 60.8108C44.8526 61.2908 45.7831 61.2178 46.3761 60.6249L48.6377 58.3631C49.5347 57.4661 49.9369 56.2964 49.8944 55.1613C49.8841 54.893 49.8112 54.6309 49.6817 54.3958C49.5521 54.1607 49.3694 53.9591 49.1481 53.8071C48.8353 53.5918 48.4348 53.2835 48.0372 52.8866C45.0216 49.871 45.0089 44.9762 48.0372 41.9479L55.256 34.7302C58.2895 31.6968 63.2374 31.715 66.2479 34.785C69.2288 37.8251 69.1345 42.7271 66.1238 45.7377L64.718 47.1436C64.2507 47.6108 64.0983 48.3026 64.3116 48.928C64.9415 50.7751 65.2829 52.6877 65.3525 54.5914C65.4072 56.0852 67.2275 56.7878 68.2845 55.7307L72.2705 51.7447C78.6375 45.379 78.6375 35.0193 72.2706 28.6535Z" fill="url(#paint0_linear_1_524)"/>
</g>
<defs>
<filter id="filter0_bi_1_524" x="12.8642" y="71.1747" width="75.3484" height="71.6515" filterUnits="userSpaceOnUse" color-interpolation-filters="sRGB">
<feFlood flood-opacity="0" result="BackgroundImageFix"/>
<feGaussianBlur in="BackgroundImageFix" stdDeviation="9.9734"/>
<feComposite in2="SourceAlpha" operator="in" result="effect1_backgroundBlur_1_524"/>
<feBlend mode="normal" in="SourceGraphic" in2="effect1_backgroundBlur_1_524" result="shape"/>
<feColorMatrix in="SourceAlpha" type="matrix" values="0 0 0 0 0 0 0 0 0 0 0 0 0 0 0 0 0 0 127 0" result="hardAlpha"/>
<feOffset dy="21"/>
<feGaussianBlur stdDeviation="41.5"/>
<feComposite in2="hardAlpha" operator="arithmetic" k2="-1" k3="1"/>
<feColorMatrix type="matrix" values="0 0 0 0 0.526736 0 0 0 0 0.154167 0 0 0 0 1 0 0 0 0.5 0"/>
<feBlend mode="normal" in2="shape" result="effect2_innerShadow_1_524"/>
</filter>
<filter id="filter1_bi_1_524" x="-18.9517" y="-19.5166" width="138.98" height="140.034" filterUnits="userSpaceOnUse" color-interpolation-filters="sRGB">
<feFlood flood-opacity="0" result="BackgroundImageFix"/>
<feGaussianBlur in="BackgroundImageFix" stdDeviation="9.9734"/>
<feComposite in2="SourceAlpha" operator="in" result="effect1_backgroundBlur_1_524"/>
<feBlend mode="normal" in="SourceGraphic" in2="effect1_backgroundBlur_1_524" result="shape"/>
<feColorMatrix in="SourceAlpha" type="matrix" values="0 0 0 0 0 0 0 0 0 0 0 0 0 0 0 0 0 0 127 0" result="hardAlpha"/>
<feOffset dy="21"/>
<feGaussianBlur stdDeviation="41.5"/>
<feComposite in2="hardAlpha" operator="arithmetic" k2="-1" k3="1"/>
<feColorMatrix type="matrix" values="0 0 0 0 0.526736 0 0 0 0 0.154167 0 0 0 0 1 0 0 0 0.5 0"/>
<feBlend mode="normal" in2="shape" result="effect2_innerShadow_1_524"/>
</filter>
<linearGradient id="paint0_linear_1_524" x1="16.3563" y1="14.2062" x2="75.6816" y2="14.6583" gradientUnits="userSpaceOnUse">
<stop offset="0.0364395" stop-color="#FBF4B7"/>
<stop offset="0.322909" stop-color="#31CDE2"/>
<stop offset="0.635422" stop-color="#5276FF"/>
<stop offset="1" stop-color="#D874FF"/>
</linearGradient>
<clipPath id="clip0_1_524">
<rect width="55" height="55" fill="white" transform="translate(22.0459 23.8787)"/>
</clipPath>
</defs>
</svg>
