<svg width="55" height="55" viewBox="0 0 55 55" fill="none" xmlns="http://www.w3.org/2000/svg">
<rect x="2.63477" y="6.74805" width="45" height="45" rx="22.5" fill="white" fill-opacity="0.05" stroke="url(#paint0_linear_1_689)"/>
<g filter="url(#filter0_f_1_689)">
<rect x="4.63477" y="4.74805" width="45" height="45" rx="22.5" stroke="url(#paint1_linear_1_689)"/>
</g>
<path d="M36.7783 22.1856C35.9433 22.5556 35.0463 22.8056 34.1033 22.9186C35.0763 22.3364 35.8042 21.4201 36.1513 20.3406C35.2371 20.8836 34.2366 21.2658 33.1933 21.4706C32.4916 20.7215 31.5623 20.2249 30.5496 20.0581C29.5369 19.8912 28.4974 20.0634 27.5925 20.5479C26.6876 21.0323 25.968 21.802 25.5454 22.7373C25.1228 23.6727 25.0208 24.7214 25.2553 25.7206C23.403 25.6276 21.5909 25.1462 19.9367 24.3075C18.2825 23.4689 16.8231 22.2918 15.6533 20.8526C15.2533 21.5426 15.0233 22.3426 15.0233 23.1946C15.0228 23.9616 15.2117 24.7169 15.5731 25.3933C15.9346 26.0698 16.4574 26.6467 17.0953 27.0726C16.3555 27.0491 15.6321 26.8492 14.9853 26.4896V26.5496C14.9852 27.6254 15.3573 28.668 16.0384 29.5006C16.7196 30.3332 17.6678 30.9045 18.7223 31.1176C18.036 31.3033 17.3166 31.3307 16.6183 31.1976C16.9158 32.1232 17.4953 32.9326 18.2756 33.5125C19.056 34.0924 19.9982 34.4138 20.9703 34.4316C19.3201 35.727 17.2822 36.4297 15.1843 36.4266C14.8126 36.4267 14.4413 36.405 14.0723 36.3616C16.2017 37.7308 18.6806 38.4574 21.2123 38.4546C29.7823 38.4546 34.4673 31.3566 34.4673 25.2006C34.4673 25.0006 34.4623 24.7986 34.4533 24.5986C35.3646 23.9396 36.1512 23.1235 36.7763 22.1886L36.7783 22.1856Z" fill="white"/>
<path d="M36.7783 22.1856C35.9433 22.5556 35.0463 22.8056 34.1033 22.9186C35.0763 22.3364 35.8042 21.4201 36.1513 20.3406C35.2371 20.8836 34.2366 21.2658 33.1933 21.4706C32.4916 20.7215 31.5623 20.2249 30.5496 20.0581C29.5369 19.8912 28.4974 20.0634 27.5925 20.5479C26.6876 21.0323 25.968 21.802 25.5454 22.7373C25.1228 23.6727 25.0208 24.7214 25.2553 25.7206C23.403 25.6276 21.5909 25.1462 19.9367 24.3075C18.2825 23.4689 16.8231 22.2918 15.6533 20.8526C15.2533 21.5426 15.0233 22.3426 15.0233 23.1946C15.0228 23.9616 15.2117 24.7169 15.5731 25.3933C15.9346 26.0698 16.4574 26.6467 17.0953 27.0726C16.3555 27.0491 15.6321 26.8492 14.9853 26.4896V26.5496C14.9852 27.6254 15.3573 28.668 16.0384 29.5006C16.7196 30.3332 17.6678 30.9045 18.7223 31.1176C18.036 31.3033 17.3166 31.3307 16.6183 31.1976C16.9158 32.1232 17.4953 32.9326 18.2756 33.5125C19.056 34.0924 19.9982 34.4138 20.9703 34.4316C19.3201 35.727 17.2822 36.4297 15.1843 36.4266C14.8126 36.4267 14.4413 36.405 14.0723 36.3616C16.2017 37.7308 18.6806 38.4574 21.2123 38.4546C29.7823 38.4546 34.4673 31.3566 34.4673 25.2006C34.4673 25.0006 34.4623 24.7986 34.4533 24.5986C35.3646 23.9396 36.1512 23.1235 36.7763 22.1886L36.7783 22.1856Z" fill="url(#paint2_linear_1_689)"/>
<defs>
<filter id="filter0_f_1_689" x="0.134766" y="0.248047" width="54" height="54" filterUnits="userSpaceOnUse" color-interpolation-filters="sRGB">
<feFlood flood-opacity="0" result="BackgroundImageFix"/>
<feBlend mode="normal" in="SourceGraphic" in2="BackgroundImageFix" result="shape"/>
<feGaussianBlur stdDeviation="2" result="effect1_foregroundBlur_1_689"/>
</filter>
<linearGradient id="paint0_linear_1_689" x1="-3.98541" y1="-8.4464" x2="49.653" y2="-5.22917" gradientUnits="userSpaceOnUse">
<stop offset="0.0364395" stop-color="#FBF4B7"/>
<stop offset="0.322909" stop-color="#31CDE2"/>
<stop offset="0.635422" stop-color="#5276FF"/>
<stop offset="1" stop-color="#D874FF"/>
</linearGradient>
<linearGradient id="paint1_linear_1_689" x1="-1.98541" y1="-10.4464" x2="51.653" y2="-7.22917" gradientUnits="userSpaceOnUse">
<stop offset="0.0364395" stop-color="#FBF4B7"/>
<stop offset="0.322909" stop-color="#31CDE2"/>
<stop offset="0.635422" stop-color="#5276FF"/>
<stop offset="1" stop-color="#D874FF"/>
</linearGradient>
<linearGradient id="paint2_linear_1_689" x1="11.0513" y1="14.0996" x2="37.479" y2="16.0495" gradientUnits="userSpaceOnUse">
<stop offset="0.0364395" stop-color="#FBF4B7"/>
<stop offset="0.322909" stop-color="#31CDE2"/>
<stop offset="0.635422" stop-color="#5276FF"/>
<stop offset="1" stop-color="#D874FF"/>
</linearGradient>
</defs>
</svg>
